<svg version="1.1" xmlns="http://www.w3.org/2000/svg" xmlns:xlink="http://www.w3.org/1999/xlink" width="640" height="202"><style xmlns="http://www.w3.org/1999/xhtml"></style><defs/><g transform="translate(0,0)"><g><rect fill="#FFFFFF" stroke="none" x="0" y="0" width="640" height="202"/></g><g transform="translate(0.5,0.5) matrix(1,0,0,1,300,60)"><g><g transform="translate(0,0) scale(0.9999833336111065,1.0079073972090316)"><g><path fill="#3966A0" stroke="rgb(0,0,0)" d="M 5.455 96.239 L 54.546 96.239 C 57.555 96.239 60.001 93.792 60.001 90.784 L 60.001 61.013 C 60.001 59.435 59.311 57.966 58.171 56.952 L 58.171 55.641 C 59.311 54.626 60.001 53.16 60.001 51.58 L 60.001 42.157 C 60.001 40.578 59.311 39.111 58.171 38.097 L 58.171 37.226 C 59.311 36.212 60.001 34.745 60.001 33.166 L 60.001 23.744 C 60.001 22.166 59.311 20.698 58.171 19.684 L 58.171 18.813 C 59.311 17.799 60.001 16.332 60.001 14.753 L 60.001 5.332 C 60.001 3.032 58.535 0.969 56.352 0.198 L 55.913 0.043 L 55.446 0.043 L 4.7 0 L 4.307 0 L 3.93 0.111 C 1.616 0.786 0 2.934 0 5.33 L 0 14.752 C 0 16.389 0.754 17.91 1.969 18.926 L 1.969 19.569 C 0.754 20.586 0 22.107 0 23.744 L 0 33.166 C 0 34.803 0.754 36.324 1.969 37.34 L 1.969 37.983 C 0.754 39 0 40.521 0 42.158 L 0 51.58 C 0 53.218 0.754 54.738 1.969 55.754 L 1.969 56.838 C 0.754 57.854 0 59.375 0 61.013 L 0 90.785 C 0 93.792 2.447 96.239 5.455 96.239 Z" stroke-opacity="0" stroke-miterlimit="10"/></g><g><path fill="#FFFFFF" stroke="rgb(0,0,0)" d="M 45.80200000000001 9.886 A 2.273 2.273 0 1 0 45.801998863500096 9.888272999621167 Z" opacity="0.5" stroke-opacity="0" stroke-miterlimit="10"/></g><g><path fill="#FFFFFF" stroke="rgb(0,0,0)" d="M 45.80200000000001 28.357 A 2.273 2.273 0 1 0 45.801998863500096 28.359272999621165 Z" opacity="0.5" stroke-opacity="0" stroke-miterlimit="10"/></g><g><path fill="#FFFFFF" stroke="rgb(0,0,0)" d="M 45.80200000000001 46.884 A 2.273 2.273 0 1 0 45.801998863500096 46.88627299962117 Z" opacity="0.5" stroke-opacity="0" stroke-miterlimit="10"/></g><g><path fill="#FFFFFF" stroke="rgb(0,0,0)" d="M 4.698 17.467 L 55.443 17.467 Q 55.443 17.467 55.443 17.467 L 55.443 21.004 Q 55.443 21.004 55.443 21.004 L 4.698 21.004 Q 4.698 21.004 4.698 21.004 L 4.698 17.467 Q 4.698 17.467 4.698 17.467 Z" opacity="0.25" stroke-opacity="0" stroke-miterlimit="10"/></g><g><path fill="#FFFFFF" stroke="rgb(0,0,0)" d="M 4.697 35.904 L 55.444 35.904 Q 55.444 35.904 55.444 35.904 L 55.444 39.441 Q 55.444 39.441 55.444 39.441 L 4.697 39.441 Q 4.697 39.441 4.697 39.441 L 4.697 35.904 Q 4.697 35.904 4.697 35.904 Z" opacity="0.25" stroke-opacity="0" stroke-miterlimit="10"/></g><g><path fill="#FFFFFF" stroke="rgb(0,0,0)" d="M 4.697 54.511 L 55.444 54.511 Q 55.444 54.511 55.444 54.511 L 55.444 58.048 Q 55.444 58.048 55.444 58.048 L 4.697 58.048 Q 4.697 58.048 4.697 58.048 L 4.697 54.511 Q 4.697 54.511 4.697 54.511 Z" opacity="0.25" stroke-opacity="0" stroke-miterlimit="10"/></g><g><g><path fill="#FFFFFF" stroke="rgb(0,0,0)" d="M 55.443 21.181 L 55.443 21.003 L 4.698 21.003 L 4.697 21.003 L 4.697 21.137 C 3.565 21.469 2.728 22.508 2.728 23.743 L 2.728 33.165 C 2.728 34.4 3.566 35.439 4.697 35.771 L 4.697 35.903 L 4.698 35.903 L 55.443 35.903 L 55.443 35.728 C 56.503 35.354 57.273 34.35 57.273 33.165 L 57.273 23.743 C 57.273 22.56 56.503 21.556 55.443 21.181 Z M 43.529 30.629 C 42.273 30.629 41.256 29.611 41.256 28.356 C 41.256 27.101 42.274 26.083 43.529 26.083 C 44.784 26.083 45.801 27.101 45.801 28.356 C 45.801 29.612 44.784 30.629 43.529 30.629 Z M 51.104 30.629 C 49.85 30.629 48.832 29.611 48.832 28.356 C 48.832 27.101 49.851 26.083 51.104 26.083 C 52.36 26.083 53.377 27.101 53.377 28.356 C 53.377 29.612 52.359 30.629 51.104 30.629 Z" opacity="0.8" stroke-opacity="0" stroke-miterlimit="10"/></g><g><path fill="#FFFFFF" stroke="rgb(0,0,0)" d="M 55.443 39.595 L 55.443 39.441 L 4.698 39.441 L 4.697 39.441 L 4.697 39.552 C 3.565 39.884 2.728 40.923 2.728 42.158 L 2.728 51.58 C 2.728 52.815 3.566 53.854 4.697 54.186 L 4.697 54.51 L 4.698 54.51 L 55.443 54.51 L 55.443 54.143 C 56.503 53.768 57.273 52.764 57.273 51.58 L 57.273 42.158 C 57.273 40.973 56.503 39.97 55.443 39.595 Z M 43.529 49.157 C 42.273 49.157 41.256 48.139 41.256 46.884 C 41.256 45.629 42.274 44.611 43.529 44.611 C 44.784 44.611 45.801 45.629 45.801 46.884 C 45.801 48.139 44.784 49.157 43.529 49.157 Z M 51.104 49.157 C 49.85 49.157 48.832 48.139 48.832 46.884 C 48.832 45.629 49.851 44.611 51.104 44.611 C 52.36 44.611 53.377 45.629 53.377 46.884 C 53.377 48.139 52.359 49.157 51.104 49.157 Z" opacity="0.8" stroke-opacity="0" stroke-miterlimit="10"/></g><g><path fill="#FFFFFF" stroke="rgb(0,0,0)" d="M 55.443 2.767 L 4.697 2.724 C 3.565 3.056 2.728 4.095 2.728 5.33 L 2.728 14.752 C 2.728 15.987 3.566 17.026 4.697 17.358 L 4.697 17.466 L 4.698 17.466 L 55.443 17.466 L 55.443 17.315 C 56.503 16.941 57.273 15.937 57.273 14.752 L 57.273 5.33 C 57.273 4.146 56.503 3.142 55.443 2.767 Z M 43.529 12.159 C 42.273 12.159 41.256 11.141 41.256 9.886 C 41.256 8.631 42.274 7.613 43.529 7.613 C 44.784 7.613 45.801 8.631 45.801 9.886 C 45.801 11.141 44.784 12.159 43.529 12.159 Z M 51.104 12.159 C 49.85 12.159 48.832 11.141 48.832 9.886 C 48.832 8.631 49.851 7.613 51.104 7.613 C 52.36 7.613 53.377 8.631 53.377 9.886 C 53.377 11.141 52.359 12.159 51.104 12.159 Z" opacity="0.8" stroke-opacity="0" stroke-miterlimit="10"/></g><g><path fill="#FFFFFF" stroke="rgb(0,0,0)" d="M 55.443 58.449 L 55.443 58.048 L 4.698 58.048 L 4.697 58.048 L 4.697 58.406 C 3.565 58.738 2.728 59.777 2.728 61.012 L 2.728 90.784 C 2.728 92.284 3.955 93.512 5.455 93.512 L 54.546 93.512 C 56.046 93.512 57.274 92.284 57.274 90.784 L 57.274 61.013 C 57.273 59.828 56.503 58.824 55.443 58.449 Z M 11.615 85.502 C 11.466 85.502 11.315 85.466 11.176 85.388 C 10.737 85.146 10.578 84.593 10.821 84.153 L 17.079 72.845 C 17.323 72.405 17.876 72.247 18.315 72.49 C 18.754 72.733 18.913 73.286 18.67 73.726 L 12.412 85.034 C 12.245 85.333 11.935 85.502 11.615 85.502 Z M 19.025 85.502 C 18.876 85.502 18.725 85.466 18.586 85.388 C 18.147 85.146 17.988 84.593 18.231 84.153 L 24.489 72.845 C 24.732 72.405 25.287 72.247 25.725 72.49 C 26.164 72.733 26.323 73.286 26.08 73.726 L 19.822 85.034 C 19.656 85.333 19.346 85.502 19.025 85.502 Z M 26.435 85.502 C 26.286 85.502 26.135 85.466 25.996 85.388 C 25.557 85.146 25.398 84.593 25.641 84.153 L 31.898 72.845 C 32.142 72.405 32.697 72.247 33.134 72.49 C 33.573 72.733 33.732 73.286 33.489 73.726 L 27.231 85.034 C 27.065 85.333 26.755 85.502 26.435 85.502 Z M 33.846 85.502 C 33.696 85.502 33.545 85.466 33.407 85.388 C 32.968 85.146 32.809 84.593 33.052 84.153 L 39.31 72.845 C 39.553 72.405 40.109 72.247 40.546 72.49 C 40.985 72.733 41.144 73.286 40.901 73.726 L 34.643 85.034 C 34.475 85.333 34.165 85.502 33.846 85.502 Z M 48.309 73.726 L 42.052 85.034 C 41.887 85.333 41.575 85.503 41.256 85.503 C 41.108 85.503 40.956 85.467 40.817 85.389 C 40.379 85.147 40.219 84.594 40.463 84.154 L 46.72 72.846 C 46.963 72.407 47.519 72.248 47.956 72.491 C 48.393 72.733 48.552 73.286 48.309 73.726 Z" opacity="0.8" stroke-opacity="0" stroke-miterlimit="10"/></g></g></g></g></g><g transform="translate(0.5,0.5) matrix(1,0,0,1,49.99999999999999,82)"><g><g transform="translate(0,0) scale(0.5333333333333333,0.5356903709655819)"><g><path fill="#3966A0" stroke="rgb(0,0,0)" d="M 123 62.3 L 112.006 62.3 L 112.006 5 C 112.006 2.243 109.764 0 107.006 0 L 18.993 0 C 16.236 0 13.993 2.243 13.993 5 L 13.993 62.3 L 3 62.3 L 0 62.3 L 0 65.3 L 0 68.485 C 0 71.953 2.328 74.67 5.3 74.67 L 120.699 74.67 C 123.671 74.67 126 71.953 126 68.485 L 126 65.3 L 126 62.3 L 123 62.3 Z" stroke-opacity="0" stroke-miterlimit="10"/></g><g><g><path fill="#FFFFFF" stroke="rgb(0,0,0)" d="M 107.027 2.999 L 19.014 2.999 C 17.914 2.999 17.014 3.899 17.014 4.999 L 17.014 62.3 L 109.027 62.3 L 109.027 4.999 C 109.027 3.899 108.127 2.999 107.027 2.999 Z M 103.275 60.507 L 33.613 60.507 L 22.765 60.507 L 22.765 8.75 L 63.495 8.75 L 103.275 8.75 L 103.275 60.507 Z" opacity="0.93" stroke-opacity="0" stroke-miterlimit="10"/></g></g><g><g><path fill="#FFFFFF" stroke="rgb(0,0,0)" d="M 112.607 65.3 L 112.607 65.3 L 71.455 65.301 L 71.455 65.893 C 71.455 66.768 70.937 67.485 70.305 67.485 L 56.12 67.485 C 55.487 67.485 54.97 66.768 54.97 65.893 L 54.97 65.301 L 14.521 65.301 L 14.521 65.3 L 3.021 65.3 L 3.021 68.485 C 3.021 70.235 4.056 71.669 5.321 71.669 L 120.721 71.669 C 121.985 71.669 123.022 70.235 123.022 68.485 L 123.022 65.3 L 112.607 65.3 Z" opacity="0.85" stroke-opacity="0" stroke-miterlimit="10"/></g></g><g><path fill="#FFFFFF" stroke="rgb(0,0,0)" d="M 63.495 8.75 L 22.765 8.75 L 22.765 60.507 L 33.613 60.507 L 63.495 8.75 Z" opacity="0.1" stroke-opacity="0" stroke-miterlimit="10"/></g></g></g></g><g transform="translate(0.5,0.5) matrix(1,0,0,1,26.951219512195124,69.5)"><g><g transform="translate(0,0) scale(0.741094037681236,0.7378258730939499) translate(-0.0001780171,0)"><g><g><path fill="#3966A0" stroke="rgb(0,0,0)" d="M 62.176 71.979 C 62.134 58.362 55.184 48.994 43.067 45.44 C 50.425 41.258 55.403 33.353 55.403 24.302 C 55.402 10.901 44.501 0 31.101 0 C 17.702 0 6.8 10.901 6.8 24.302 C 6.8 33.385 11.812 41.314 19.212 45.484 C 7.176 49.108 0.07 58.58 0.026 71.98 C -0.045 72.514 -0.04 73.694 1 75.043 C 4.212 79.208 14.339 81.32 31.101 81.32 C 47.863 81.32 57.992 79.208 61.203 75.043 C 62.242 73.693 62.248 72.514 62.176 71.979 Z" stroke-opacity="0" stroke-miterlimit="10"/></g><g><path fill="#FFFFFF" stroke="rgb(0,0,0)" d="M 31.101 3 C 19.356 3 9.8 12.556 9.8 24.302 C 9.8 33.578 15.771 41.467 24.063 44.383 C 26.27 45.159 28.632 45.604 31.101 45.604 C 33.587 45.604 35.966 45.153 38.187 44.366 C 46.455 41.436 52.402 33.561 52.402 24.303 C 52.402 12.556 42.847 3 31.101 3 Z" opacity="0.93" stroke-opacity="0" stroke-miterlimit="10"/></g><g><path fill="#FFFFFF" stroke="rgb(0,0,0)" d="M 3.026 72.104 L 3.005 72.453 C 3.026 72.606 3.126 72.966 3.583 73.455 C 4.948 74.918 10.362 78.321 31.101 78.321 C 52.57 78.321 57.642 74.748 58.828 73.212 C 59.102 72.855 59.226 72.487 59.226 72.487 L 59.176 72.104 C 59.176 58.426 51.738 49.723 38.495 47.45 C 36.161 48.197 33.678 48.604 31.099 48.604 C 28.541 48.604 26.076 48.204 23.759 47.467 C 10.643 49.795 3.026 58.637 3.026 72.104 Z" opacity="0.93" stroke-opacity="0" stroke-miterlimit="10"/></g></g></g></g></g><g transform="translate(0,0) matrix(1,0,0,1,136,78)"><g><g transform="translate(0,0) scale(1.52,0.15)"><g><g transform="scale(0.6578947368421053,6.666666666666667)"><path fill="#FFFFFF" stroke="none" d="M 0 4.5 L 144.5 4.5 L 144.5 0 L 152 7.5 L 144.5 15 L 144.5 10.5 L 0 10.5 L 0 4.5 Z"/><path fill="none" stroke="#0B599F" d="M 0 4.5 M 0 4.5 L 144.5 4.5 L 144.5 0 L 152 7.5 L 144.5 15 L 144.5 10.5 L 0 10.5 L 0 4.5 Z" stroke-miterlimit="10" stroke-width="2"/></g></g></g></g></g><g transform="translate(0,0) matrix(1,0,0,1,136,122)"><g><g transform="translate(0,0) scale(1.52,0.15)"><g><g transform="scale(0.6578947368421053,6.666666666666667)"><path fill="#FFFFFF" stroke="none" d="M 0 7.5 L 7.5 0 L 7.5 4.5 L 152 4.5 L 152 10.5 L 7.5 10.5 L 7.5 15 L 0 7.5 Z"/><path fill="none" stroke="#0B599F" d="M 0 7.5 M 0 7.5 L 7.5 0 L 7.5 4.5 L 152 4.5 L 152 10.5 L 7.5 10.5 L 7.5 15 L 0 7.5 Z" stroke-miterlimit="10" stroke-width="2"/></g></g></g></g></g><g transform="matrix(1,0,0,1,116,22)"><g transform="translate(214,216) matrix(1,0,0,1,0,0) translate(-214,-216)"><g><rect fill="rgb(0,0,0)" stroke="none" x="0" y="0" width="183" height="54" fill-opacity="0"/></g></g><g transform="translate(214,216) matrix(1,0,0,1,0,0) translate(-214,-216)"><g><rect fill="rgb(0,0,0)" stroke="none" x="0" y="0" width="183" height="18" fill-opacity="0"/></g></g><g transform="translate(214,216) matrix(1,0,0,1,0,0) translate(-214,-216)"><g><rect fill="rgb(0,0,0)" stroke="none" x="38" y="0" width="107" height="17" fill-opacity="0"/></g></g><g transform="translate(214,216) matrix(1,0,0,1,0,0) translate(-214,-216)"><g><rect fill="rgb(0,0,0)" stroke="none" x="38" y="0" width="107" height="17" fill-opacity="0"/></g><text fill="rgb(7, 55, 99)" stroke="none" font-family="Arial" font-size="16px" font-style="normal" font-weight="bold" text-decoration="" line-height="18.5px" x="38" y="15">Web</text><text fill="rgb(7, 55, 99)" stroke="none" font-family="Arial" font-size="16px" font-style="normal" font-weight="bold" text-decoration="" line-height="18.5px" x="76" y="15">Request</text><text fill="rgb(7, 55, 99)" stroke="none" font-family="Arial" font-size="16px" font-style="normal" font-weight="bold" text-decoration="" line-height="18.5px" x="139" y="15">:</text></g><g transform="translate(214,216) matrix(1,0,0,1,0,0) translate(-214,-216)"><g><rect fill="rgb(0,0,0)" stroke="none" x="0" y="18" width="183" height="18" fill-opacity="0"/></g></g><g transform="translate(214,216) matrix(1,0,0,1,0,0) translate(-214,-216)"><g><rect fill="rgb(0,0,0)" stroke="none" x="34" y="18" width="115" height="14" fill-opacity="0"/></g></g><g transform="translate(214,216) matrix(1,0,0,1,0,0) translate(-214,-216)"><g><rect fill="rgb(0,0,0)" stroke="none" x="34" y="18" width="115" height="17" fill-opacity="0"/></g></g><g transform="translate(214,216) matrix(1,0,0,1,0,0) translate(-214,-216)"><g><rect fill="rgb(0,0,0)" stroke="none" x="34" y="18" width="115" height="17" fill-opacity="0"/></g><text fill="rgb(7, 55, 99)" stroke="none" font-family="Arial" font-size="16px" font-style="normal" font-weight="bold" text-decoration="" line-height="18.5px" x="34" y="33">username</text><text fill="rgb(7, 55, 99)" stroke="none" font-family="Arial" font-size="16px" font-style="normal" font-weight="bold" text-decoration="" line-height="18.5px" x="110" y="33">:</text><text fill="rgb(7, 55, 99)" stroke="none" font-family="Arial" font-size="16px" font-style="normal" font-weight="bold" text-decoration="" line-height="18.5px" x="120" y="33">bob</text></g><g transform="translate(214,216) matrix(1,0,0,1,0,0) translate(-214,-216)"><g><rect fill="rgb(0,0,0)" stroke="none" x="0" y="36" width="183" height="18" fill-opacity="0"/></g></g><g transform="translate(214,216) matrix(1,0,0,1,0,0) translate(-214,-216)"><g><rect fill="rgb(0,0,0)" stroke="none" x="12" y="36" width="159" height="14" fill-opacity="0"/></g></g><g transform="translate(214,216) matrix(1,0,0,1,0,0) translate(-214,-216)"><g><rect fill="rgb(0,0,0)" stroke="none" x="12" y="36" width="159" height="17" fill-opacity="0"/></g></g><g transform="translate(214,216) matrix(1,0,0,1,0,0) translate(-214,-216)"><g><rect fill="rgb(0,0,0)" stroke="none" x="12" y="36" width="159" height="17" fill-opacity="0"/></g><text fill="rgb(7, 55, 99)" stroke="none" font-family="Arial" font-size="16px" font-style="normal" font-weight="bold" text-decoration="" line-height="18.5px" x="12" y="51">password</text><text fill="rgb(7, 55, 99)" stroke="none" font-family="Arial" font-size="16px" font-style="normal" font-weight="bold" text-decoration="" line-height="18.5px" x="87" y="51">:</text><text fill="rgb(7, 55, 99)" stroke="none" font-family="Arial" font-size="16px" font-style="normal" font-weight="bold" text-decoration="" line-height="18.5px" x="96" y="51">password</text></g></g><g transform="matrix(1,0,0,1,128,146)"><g transform="translate(102,54) matrix(1,0,0,1,0,0) translate(-102,-54)"><g><rect fill="rgb(0,0,0)" stroke="none" x="0" y="0" width="160" height="36" fill-opacity="0"/></g></g><g transform="translate(102,54) matrix(1,0,0,1,0,0) translate(-102,-54)"><g><rect fill="rgb(0,0,0)" stroke="none" x="0" y="0" width="160" height="18" fill-opacity="0"/></g></g><g transform="translate(102,54) matrix(1,0,0,1,0,0) translate(-102,-54)"><g><rect fill="rgb(0,0,0)" stroke="none" x="39" y="0" width="82" height="17" fill-opacity="0"/></g></g><g transform="translate(102,54) matrix(1,0,0,1,0,0) translate(-102,-54)"><g><rect fill="rgb(0,0,0)" stroke="none" x="39" y="0" width="82" height="17" fill-opacity="0"/></g><text fill="rgb(7, 55, 99)" stroke="none" font-family="Arial" font-size="16px" font-style="normal" font-weight="bold" text-decoration="" line-height="18.5px" x="39" y="15">Response</text><text fill="rgb(7, 55, 99)" stroke="none" font-family="Arial" font-size="16px" font-style="normal" font-weight="bold" text-decoration="" line-height="18.5px" x="116" y="15">:</text></g><g transform="translate(102,54) matrix(1,0,0,1,0,0) translate(-102,-54)"><g><rect fill="rgb(0,0,0)" stroke="none" x="0" y="18" width="160" height="18" fill-opacity="0"/></g></g><g transform="translate(102,54) matrix(1,0,0,1,0,0) translate(-102,-54)"><g><rect fill="rgb(0,0,0)" stroke="none" x="12" y="18" width="136" height="17" fill-opacity="0"/></g></g><g transform="translate(102,54) matrix(1,0,0,1,0,0) translate(-102,-54)"><g><rect fill="rgb(0,0,0)" stroke="none" x="12" y="18" width="136" height="17" fill-opacity="0"/></g><text fill="rgb(7, 55, 99)" stroke="none" font-family="Arial" font-size="16px" font-style="normal" font-weight="bold" text-decoration="" line-height="18.5px" x="12" y="33">user</text><text fill="rgb(7, 55, 99)" stroke="none" font-family="Arial" font-size="16px" font-style="normal" font-weight="bold" text-decoration="" line-height="18.5px" x="51" y="33">bob</text><text fill="rgb(7, 55, 99)" stroke="none" font-family="Arial" font-size="16px" font-style="normal" font-weight="bold" text-decoration="" line-height="18.5px" x="80" y="33">'</text><text fill="rgb(7, 55, 99)" stroke="none" font-family="Arial" font-size="16px" font-style="normal" font-weight="bold" text-decoration="" line-height="18.5px" x="84" y="33">s</text><text fill="rgb(7, 55, 99)" stroke="none" font-family="Arial" font-size="16px" font-style="normal" font-weight="bold" text-decoration="" line-height="18.5px" x="97" y="33">details</text></g></g><g transform="translate(0.5,0.5) matrix(1,0,0,1,550,59.5)"><g><g transform="translate(0,0) scale(0.9975773122416987,1.009163201873007)"><g><g><path fill="#3966A0" stroke="rgb(0,0,0)" d="M 69.998 31.797 L 70.17 31.469 L 70.17 9.711 C 70.17 9.331 70.1 8.967 69.982 8.613 C 67.939 2.32 48.438 0 35.085 0 C 25.998 0 17.438 0.869 10.98 2.447 C 4.602 4.007 0.977 6.074 0.172 8.604 C 0.058 8.964 0 9.333 0 9.711 L 0 31.476 L 0.171 31.803 C 0.526 32.48 1.408 33.168 2.745 33.833 C 1.463 34.683 0.638 35.612 0.254 36.614 C 0.091 37.039 0 37.476 0 37.927 L 0 60.444 L 0.172 60.772 C 0.527 61.448 1.411 62.135 2.749 62.801 C 1.262 63.787 0.386 64.879 0.107 66.069 C 0.043 66.34 0.001 66.616 0.001 66.899 L 0.001 89.38 C 0.001 92.418 3.695 94.861 10.98 96.645 C 17.437 98.223 25.998 99.092 35.084 99.092 C 44.172 99.092 52.731 98.223 59.188 96.645 C 66.475 94.864 70.167 92.418 70.167 89.38 L 70.167 66.898 C 70.167 66.615 70.125 66.338 70.063 66.068 C 69.784 64.878 68.907 63.786 67.417 62.797 C 68.757 62.13 69.642 61.443 69.998 60.764 L 70.17 60.437 L 70.17 37.926 C 70.17 37.475 70.079 37.039 69.916 36.615 C 69.533 35.612 68.706 34.681 67.421 33.83 C 68.759 33.163 69.643 32.475 69.998 31.797 Z" stroke-opacity="0" stroke-miterlimit="10"/></g><g><path fill="#FFFFFF" stroke="rgb(0,0,0)" d="M 9.08 72.631 C 6.708 72.085 4.697 71.485 3.001 70.817 L 3.001 89.38 C 3.001 91.656 14.325 96.092 35.085 96.092 C 55.845 96.092 67.17 91.656 67.17 89.38 L 67.17 70.816 C 65.475 71.486 63.463 72.087 61.091 72.63 C 54.106 74.237 44.869 75.125 35.085 75.125 C 25.301 75.125 16.066 74.238 9.08 72.631 Z" opacity="0.93" stroke-opacity="0" stroke-miterlimit="10"/></g><g><path fill="#FFFFFF" stroke="rgb(0,0,0)" d="M 6.487 64.236 C 4.189 65.199 3.001 66.161 3.001 66.896 C 3.001 66.898 3.001 66.902 3.001 66.902 C 4.459 68.125 11.007 70.346 22.268 71.381 C 23.206 71.467 24.178 71.545 25.182 71.614 C 27.188 71.751 29.327 71.85 31.591 71.901 C 32.725 71.924 33.889 71.94 35.086 71.94 C 54.244 71.94 65.231 68.53 67.17 66.899 L 67.17 66.895 C 67.17 66.16 65.981 65.198 63.678 64.233 C 57.536 66.124 47.44 67.561 35.086 67.561 C 22.729 67.564 12.628 66.126 6.487 64.236 Z" opacity="0.93" stroke-opacity="0" stroke-miterlimit="10"/></g><g><path fill="#FFFFFF" stroke="rgb(0,0,0)" d="M 6.481 35.269 C 4.187 36.231 3.001 37.191 3.001 37.926 C 3.001 37.929 3.001 37.932 3.001 37.932 C 3.092 38.012 3.223 38.096 3.355 38.18 C 5.042 38.916 7.182 39.587 9.753 40.178 C 16.525 41.739 25.522 42.596 35.085 42.596 C 44.648 42.596 53.647 41.739 60.416 40.178 C 62.978 39.588 65.111 38.92 66.795 38.188 C 66.938 38.099 67.07 38.011 67.169 37.93 L 67.169 37.926 C 67.169 37.19 65.981 36.23 63.686 35.267 C 57.543 37.158 47.442 38.596 35.085 38.596 C 22.723 38.596 12.621 37.158 6.481 35.269 Z" opacity="0.93" stroke-opacity="0" stroke-miterlimit="10"/></g><g><path fill="#FFFFFF" stroke="rgb(0,0,0)" d="M 67.169 9.711 C 67.169 7.434 55.844 3 35.084 3 C 32.488 3 30.042 3.069 27.745 3.195 C 26.598 3.258 25.486 3.335 24.414 3.424 C 23.878 3.469 23.352 3.517 22.834 3.567 C 9.911 4.836 3 7.932 3 9.713 C 3 9.715 3 9.717 3 9.72 C 3.713 10.316 5.652 11.151 8.75 11.97 C 9.078 12.052 9.41 12.133 9.752 12.211 C 16.523 13.771 25.522 14.629 35.085 14.629 C 44.648 14.629 53.647 13.771 60.416 12.211 C 60.758 12.132 61.088 12.052 61.416 11.97 C 64.52 11.15 66.458 10.313 67.169 9.715 L 67.169 9.711 Z M 35.085 11.58 C 24.85 11.58 16.552 10.295 16.552 8.71 C 16.552 7.125 24.85 5.84 35.085 5.84 C 45.32 5.84 53.618 7.125 53.618 8.71 C 53.618 10.295 45.318 11.58 35.085 11.58 Z" opacity="0.93" stroke-opacity="0" stroke-miterlimit="10"/></g><g><path fill="#FFFFFF" stroke="rgb(0,0,0)" d="M 35.085 5.841 C 45.32049 5.841 53.618 7.125943 53.618 8.711 C 53.618 10.29606 45.32049 11.581 35.085 11.581 C 24.84951 11.581 16.552 10.29606 16.552 8.711 C 16.552 7.125943 24.84951 5.841 35.085 5.841 Z" opacity="0.7" stroke-opacity="0" stroke-miterlimit="10"/></g><g><path fill="#FFFFFF" stroke="rgb(0,0,0)" d="M 62.475 14.796 C 56.239 16.498 46.593 17.755 35.086 17.755 C 23.559 17.755 13.898 16.494 7.664 14.788 C 5.898 14.336 4.346 13.851 3.001 13.32 L 3.001 30.588 C 3.468 30.992 4.578 31.524 6.281 32.09 C 7.729 32.572 9.624 33.076 11.936 33.549 C 17.372 34.663 25.134 35.596 35.085 35.596 C 45.027 35.596 52.785 34.664 58.223 33.546 C 60.528 33.072 62.42 32.567 63.87 32.082 C 65.566 31.515 66.682 30.978 67.168 30.565 L 67.168 13.319 C 65.816 13.853 64.252 14.341 62.475 14.796 Z" opacity="0.93" stroke-opacity="0" stroke-miterlimit="10"/></g><g><path fill="#FFFFFF" stroke="rgb(0,0,0)" d="M 35.085 45.97 C 20.082 45.97 8.242 43.833 3 41.361 L 3 59.553 C 3.468 59.957 4.58 60.491 6.286 61.058 C 7.736 61.539 9.632 62.043 11.945 62.517 C 17.38 63.629 25.138 64.562 35.086 64.562 C 45.024 64.562 52.775 63.63 58.213 62.513 C 60.52 62.039 62.413 61.534 63.863 61.049 C 65.564 60.482 66.681 59.945 67.169 59.528 L 67.169 41.357 C 61.928 43.832 50.091 45.97 35.085 45.97 Z" opacity="0.93" stroke-opacity="0" stroke-miterlimit="10"/></g></g></g></g></g><g transform="matrix(1,0,0,1,570,162)"><g transform="translate(6,0) matrix(1,0,0,1,0,0) translate(-6,0)"><g><rect fill="rgb(0,0,0)" stroke="none" x="0" y="0" width="29" height="18" fill-opacity="0"/></g></g><g transform="translate(6,0) matrix(1,0,0,1,0,0) translate(-6,0)"><g><rect fill="rgb(0,0,0)" stroke="none" x="0" y="0" width="29" height="18" fill-opacity="0"/></g></g><g transform="translate(6,0) matrix(1,0,0,1,0,0) translate(-6,0)"><g><rect fill="rgb(0,0,0)" stroke="none" x="3" y="0" width="23" height="17" fill-opacity="0"/></g></g><g transform="translate(6,0) matrix(1,0,0,1,0,0) translate(-6,0)"><g><rect fill="rgb(0,0,0)" stroke="none" x="3" y="0" width="23" height="17" fill-opacity="0"/></g><text fill="rgb(7, 55, 99)" stroke="none" font-family="Arial" font-size="16px" font-style="normal" font-weight="bold" text-decoration="" line-height="18.5px" x="3" y="15">DB</text></g></g><g transform="translate(0,0) matrix(1,0,0,1,378,78)"><g><g transform="translate(0,0) scale(1.52,0.15)"><g><g transform="scale(0.6578947368421053,6.666666666666667)"><path fill="#FFFFFF" stroke="none" d="M 0 4.5 L 144.5 4.5 L 144.5 0 L 152 7.5 L 144.5 15 L 144.5 10.5 L 0 10.5 L 0 4.5 Z"/><path fill="none" stroke="#0B599F" d="M 0 4.5 M 0 4.5 L 144.5 4.5 L 144.5 0 L 152 7.5 L 144.5 15 L 144.5 10.5 L 0 10.5 L 0 4.5 Z" stroke-miterlimit="10" stroke-width="2"/></g></g></g></g></g><g transform="translate(0,0) matrix(1,0,0,1,378,122)"><g><g transform="translate(0,0) scale(1.52,0.15)"><g><g transform="scale(0.6578947368421053,6.666666666666667)"><path fill="#FFFFFF" stroke="none" d="M 0 7.5 L 7.5 0 L 7.5 4.5 L 152 4.5 L 152 10.5 L 7.5 10.5 L 7.5 15 L 0 7.5 Z"/><path fill="none" stroke="#0B599F" d="M 0 7.5 M 0 7.5 L 7.5 0 L 7.5 4.5 L 152 4.5 L 152 10.5 L 7.5 10.5 L 7.5 15 L 0 7.5 Z" stroke-miterlimit="10" stroke-width="2"/></g></g></g></g></g><g transform="matrix(1,0,0,1,362,31)"><g transform="translate(243,72) matrix(1,0,0,1,0,0) translate(-243,-72)"><g><rect fill="rgb(0,0,0)" stroke="none" x="0" y="0" width="183" height="36" fill-opacity="0"/></g></g><g transform="translate(243,72) matrix(1,0,0,1,0,0) translate(-243,-72)"><g><rect fill="rgb(0,0,0)" stroke="none" x="0" y="0" width="183" height="18" fill-opacity="0"/></g></g><g transform="translate(243,72) matrix(1,0,0,1,0,0) translate(-243,-72)"><g><rect fill="rgb(0,0,0)" stroke="none" x="72" y="0" width="39" height="14" fill-opacity="0"/></g></g><g transform="translate(243,72) matrix(1,0,0,1,0,0) translate(-243,-72)"><g><rect fill="rgb(0,0,0)" stroke="none" x="72" y="0" width="39" height="17" fill-opacity="0"/></g></g><g transform="translate(243,72) matrix(1,0,0,1,0,0) translate(-243,-72)"><g><rect fill="rgb(0,0,0)" stroke="none" x="72" y="0" width="39" height="17" fill-opacity="0"/></g><text fill="rgb(7, 55, 99)" stroke="none" font-family="Arial" font-size="16px" font-style="normal" font-weight="bold" text-decoration="" line-height="18.5px" x="72" y="15">SQL</text><text fill="rgb(7, 55, 99)" stroke="none" font-family="Arial" font-size="16px" font-style="normal" font-weight="bold" text-decoration="" line-height="18.5px" x="105" y="15">:</text></g><g transform="translate(243,72) matrix(1,0,0,1,0,0) translate(-243,-72)"><g><rect fill="rgb(0,0,0)" stroke="none" x="0" y="18" width="183" height="18" fill-opacity="0"/></g></g><g transform="translate(243,72) matrix(1,0,0,1,0,0) translate(-243,-72)"><g><rect fill="rgb(0,0,0)" stroke="none" x="9" y="18" width="165" height="14" fill-opacity="0"/></g></g><g transform="translate(243,72) matrix(1,0,0,1,0,0) translate(-243,-72)"><g><rect fill="rgb(0,0,0)" stroke="none" x="9" y="18" width="165" height="17" fill-opacity="0"/></g></g><g transform="translate(243,72) matrix(1,0,0,1,0,0) translate(-243,-72)"><g><rect fill="rgb(0,0,0)" stroke="none" x="9" y="18" width="165" height="17" fill-opacity="0"/></g><text fill="rgb(7, 55, 99)" stroke="none" font-family="Arial" font-size="16px" font-style="normal" font-weight="bold" text-decoration="" line-height="18.5px" x="9" y="33">SELECT</text><text fill="rgb(7, 55, 99)" stroke="none" font-family="Arial" font-size="16px" font-style="normal" font-weight="bold" text-decoration="" line-height="18.5px" x="77" y="33">bob</text><text fill="rgb(7, 55, 99)" stroke="none" font-family="Arial" font-size="16px" font-style="normal" font-weight="bold" text-decoration="" line-height="18.5px" x="106" y="33">'</text><text fill="rgb(7, 55, 99)" stroke="none" font-family="Arial" font-size="16px" font-style="normal" font-weight="bold" text-decoration="" line-height="18.5px" x="110" y="33">s</text><text fill="rgb(7, 55, 99)" stroke="none" font-family="Arial" font-size="16px" font-style="normal" font-weight="bold" text-decoration="" line-height="18.5px" x="123" y="33">details</text></g></g><g transform="matrix(1,0,0,1,366,150)"><g transform="translate(72,0) matrix(1,0,0,1,0,0) translate(-72,0)"><g><rect fill="rgb(0,0,0)" stroke="none" x="0" y="0" width="183" height="18" fill-opacity="0"/></g></g><g transform="translate(72,0) matrix(1,0,0,1,0,0) translate(-72,0)"><g><rect fill="rgb(0,0,0)" stroke="none" x="0" y="0" width="183" height="18" fill-opacity="0"/></g></g><g transform="translate(72,0) matrix(1,0,0,1,0,0) translate(-72,0)"><g><rect fill="rgb(0,0,0)" stroke="none" x="24" y="0" width="135" height="14" fill-opacity="0"/></g></g><g transform="translate(72,0) matrix(1,0,0,1,0,0) translate(-72,0)"><g><rect fill="rgb(0,0,0)" stroke="none" x="24" y="0" width="135" height="17" fill-opacity="0"/></g></g><g transform="translate(72,0) matrix(1,0,0,1,0,0) translate(-72,0)"><g><rect fill="rgb(0,0,0)" stroke="none" x="24" y="0" width="135" height="17" fill-opacity="0"/></g><text fill="rgb(7, 55, 99)" stroke="none" font-family="Arial" font-size="16px" font-style="normal" font-weight="bold" text-decoration="" line-height="18.5px" x="24" y="15">user</text><text fill="rgb(7, 55, 99)" stroke="none" font-family="Arial" font-size="16px" font-style="normal" font-weight="bold" text-decoration="" line-height="18.5px" x="62" y="15">bob</text><text fill="rgb(7, 55, 99)" stroke="none" font-family="Arial" font-size="16px" font-style="normal" font-weight="bold" text-decoration="" line-height="18.5px" x="91" y="15">'</text><text fill="rgb(7, 55, 99)" stroke="none" font-family="Arial" font-size="16px" font-style="normal" font-weight="bold" text-decoration="" line-height="18.5px" x="95" y="15">s</text><text fill="rgb(7, 55, 99)" stroke="none" font-family="Arial" font-size="16px" font-style="normal" font-weight="bold" text-decoration="" line-height="18.5px" x="108" y="15">details</text></g></g></g></svg>