<svg version="1.1" xmlns="http://www.w3.org/2000/svg" xmlns:xlink="http://www.w3.org/1999/xlink" width="450" height="188"><style xmlns="http://www.w3.org/1999/xhtml"></style><defs/><g transform="translate(0,0)"><g><rect fill="#FFFFFF" stroke="none" x="0" y="0" width="450" height="188"/></g><g transform="translate(0.5,0.5) matrix(1,0,0,1,370,53)"><g><g transform="translate(0,0) scale(0.9999833336111065,1.0079073972090316)"><g><path fill="#3966A0" stroke="rgb(0,0,0)" d="M 5.455 96.239 L 54.546 96.239 C 57.555 96.239 60.001 93.792 60.001 90.784 L 60.001 61.013 C 60.001 59.435 59.311 57.966 58.171 56.952 L 58.171 55.641 C 59.311 54.626 60.001 53.16 60.001 51.58 L 60.001 42.157 C 60.001 40.578 59.311 39.111 58.171 38.097 L 58.171 37.226 C 59.311 36.212 60.001 34.745 60.001 33.166 L 60.001 23.744 C 60.001 22.166 59.311 20.698 58.171 19.684 L 58.171 18.813 C 59.311 17.799 60.001 16.332 60.001 14.753 L 60.001 5.332 C 60.001 3.032 58.535 0.969 56.352 0.198 L 55.913 0.043 L 55.446 0.043 L 4.7 0 L 4.307 0 L 3.93 0.111 C 1.616 0.786 0 2.934 0 5.33 L 0 14.752 C 0 16.389 0.754 17.91 1.969 18.926 L 1.969 19.569 C 0.754 20.586 0 22.107 0 23.744 L 0 33.166 C 0 34.803 0.754 36.324 1.969 37.34 L 1.969 37.983 C 0.754 39 0 40.521 0 42.158 L 0 51.58 C 0 53.218 0.754 54.738 1.969 55.754 L 1.969 56.838 C 0.754 57.854 0 59.375 0 61.013 L 0 90.785 C 0 93.792 2.447 96.239 5.455 96.239 Z" stroke-opacity="0" stroke-miterlimit="10"/></g><g><path fill="#FFFFFF" stroke="rgb(0,0,0)" d="M 45.80200000000001 9.886 A 2.273 2.273 0 1 0 45.801998863500096 9.888272999621167 Z" opacity="0.5" stroke-opacity="0" stroke-miterlimit="10"/></g><g><path fill="#FFFFFF" stroke="rgb(0,0,0)" d="M 45.80200000000001 28.357 A 2.273 2.273 0 1 0 45.801998863500096 28.359272999621165 Z" opacity="0.5" stroke-opacity="0" stroke-miterlimit="10"/></g><g><path fill="#FFFFFF" stroke="rgb(0,0,0)" d="M 45.80200000000001 46.884 A 2.273 2.273 0 1 0 45.801998863500096 46.88627299962117 Z" opacity="0.5" stroke-opacity="0" stroke-miterlimit="10"/></g><g><path fill="#FFFFFF" stroke="rgb(0,0,0)" d="M 4.698 17.467 L 55.443 17.467 Q 55.443 17.467 55.443 17.467 L 55.443 21.004 Q 55.443 21.004 55.443 21.004 L 4.698 21.004 Q 4.698 21.004 4.698 21.004 L 4.698 17.467 Q 4.698 17.467 4.698 17.467 Z" opacity="0.25" stroke-opacity="0" stroke-miterlimit="10"/></g><g><path fill="#FFFFFF" stroke="rgb(0,0,0)" d="M 4.697 35.904 L 55.444 35.904 Q 55.444 35.904 55.444 35.904 L 55.444 39.441 Q 55.444 39.441 55.444 39.441 L 4.697 39.441 Q 4.697 39.441 4.697 39.441 L 4.697 35.904 Q 4.697 35.904 4.697 35.904 Z" opacity="0.25" stroke-opacity="0" stroke-miterlimit="10"/></g><g><path fill="#FFFFFF" stroke="rgb(0,0,0)" d="M 4.697 54.511 L 55.444 54.511 Q 55.444 54.511 55.444 54.511 L 55.444 58.048 Q 55.444 58.048 55.444 58.048 L 4.697 58.048 Q 4.697 58.048 4.697 58.048 L 4.697 54.511 Q 4.697 54.511 4.697 54.511 Z" opacity="0.25" stroke-opacity="0" stroke-miterlimit="10"/></g><g><g><path fill="#FFFFFF" stroke="rgb(0,0,0)" d="M 55.443 21.181 L 55.443 21.003 L 4.698 21.003 L 4.697 21.003 L 4.697 21.137 C 3.565 21.469 2.728 22.508 2.728 23.743 L 2.728 33.165 C 2.728 34.4 3.566 35.439 4.697 35.771 L 4.697 35.903 L 4.698 35.903 L 55.443 35.903 L 55.443 35.728 C 56.503 35.354 57.273 34.35 57.273 33.165 L 57.273 23.743 C 57.273 22.56 56.503 21.556 55.443 21.181 Z M 43.529 30.629 C 42.273 30.629 41.256 29.611 41.256 28.356 C 41.256 27.101 42.274 26.083 43.529 26.083 C 44.784 26.083 45.801 27.101 45.801 28.356 C 45.801 29.612 44.784 30.629 43.529 30.629 Z M 51.104 30.629 C 49.85 30.629 48.832 29.611 48.832 28.356 C 48.832 27.101 49.851 26.083 51.104 26.083 C 52.36 26.083 53.377 27.101 53.377 28.356 C 53.377 29.612 52.359 30.629 51.104 30.629 Z" opacity="0.8" stroke-opacity="0" stroke-miterlimit="10"/></g><g><path fill="#FFFFFF" stroke="rgb(0,0,0)" d="M 55.443 39.595 L 55.443 39.441 L 4.698 39.441 L 4.697 39.441 L 4.697 39.552 C 3.565 39.884 2.728 40.923 2.728 42.158 L 2.728 51.58 C 2.728 52.815 3.566 53.854 4.697 54.186 L 4.697 54.51 L 4.698 54.51 L 55.443 54.51 L 55.443 54.143 C 56.503 53.768 57.273 52.764 57.273 51.58 L 57.273 42.158 C 57.273 40.973 56.503 39.97 55.443 39.595 Z M 43.529 49.157 C 42.273 49.157 41.256 48.139 41.256 46.884 C 41.256 45.629 42.274 44.611 43.529 44.611 C 44.784 44.611 45.801 45.629 45.801 46.884 C 45.801 48.139 44.784 49.157 43.529 49.157 Z M 51.104 49.157 C 49.85 49.157 48.832 48.139 48.832 46.884 C 48.832 45.629 49.851 44.611 51.104 44.611 C 52.36 44.611 53.377 45.629 53.377 46.884 C 53.377 48.139 52.359 49.157 51.104 49.157 Z" opacity="0.8" stroke-opacity="0" stroke-miterlimit="10"/></g><g><path fill="#FFFFFF" stroke="rgb(0,0,0)" d="M 55.443 2.767 L 4.697 2.724 C 3.565 3.056 2.728 4.095 2.728 5.33 L 2.728 14.752 C 2.728 15.987 3.566 17.026 4.697 17.358 L 4.697 17.466 L 4.698 17.466 L 55.443 17.466 L 55.443 17.315 C 56.503 16.941 57.273 15.937 57.273 14.752 L 57.273 5.33 C 57.273 4.146 56.503 3.142 55.443 2.767 Z M 43.529 12.159 C 42.273 12.159 41.256 11.141 41.256 9.886 C 41.256 8.631 42.274 7.613 43.529 7.613 C 44.784 7.613 45.801 8.631 45.801 9.886 C 45.801 11.141 44.784 12.159 43.529 12.159 Z M 51.104 12.159 C 49.85 12.159 48.832 11.141 48.832 9.886 C 48.832 8.631 49.851 7.613 51.104 7.613 C 52.36 7.613 53.377 8.631 53.377 9.886 C 53.377 11.141 52.359 12.159 51.104 12.159 Z" opacity="0.8" stroke-opacity="0" stroke-miterlimit="10"/></g><g><path fill="#FFFFFF" stroke="rgb(0,0,0)" d="M 55.443 58.449 L 55.443 58.048 L 4.698 58.048 L 4.697 58.048 L 4.697 58.406 C 3.565 58.738 2.728 59.777 2.728 61.012 L 2.728 90.784 C 2.728 92.284 3.955 93.512 5.455 93.512 L 54.546 93.512 C 56.046 93.512 57.274 92.284 57.274 90.784 L 57.274 61.013 C 57.273 59.828 56.503 58.824 55.443 58.449 Z M 11.615 85.502 C 11.466 85.502 11.315 85.466 11.176 85.388 C 10.737 85.146 10.578 84.593 10.821 84.153 L 17.079 72.845 C 17.323 72.405 17.876 72.247 18.315 72.49 C 18.754 72.733 18.913 73.286 18.67 73.726 L 12.412 85.034 C 12.245 85.333 11.935 85.502 11.615 85.502 Z M 19.025 85.502 C 18.876 85.502 18.725 85.466 18.586 85.388 C 18.147 85.146 17.988 84.593 18.231 84.153 L 24.489 72.845 C 24.732 72.405 25.287 72.247 25.725 72.49 C 26.164 72.733 26.323 73.286 26.08 73.726 L 19.822 85.034 C 19.656 85.333 19.346 85.502 19.025 85.502 Z M 26.435 85.502 C 26.286 85.502 26.135 85.466 25.996 85.388 C 25.557 85.146 25.398 84.593 25.641 84.153 L 31.898 72.845 C 32.142 72.405 32.697 72.247 33.134 72.49 C 33.573 72.733 33.732 73.286 33.489 73.726 L 27.231 85.034 C 27.065 85.333 26.755 85.502 26.435 85.502 Z M 33.846 85.502 C 33.696 85.502 33.545 85.466 33.407 85.388 C 32.968 85.146 32.809 84.593 33.052 84.153 L 39.31 72.845 C 39.553 72.405 40.109 72.247 40.546 72.49 C 40.985 72.733 41.144 73.286 40.901 73.726 L 34.643 85.034 C 34.475 85.333 34.165 85.502 33.846 85.502 Z M 48.309 73.726 L 42.052 85.034 C 41.887 85.333 41.575 85.503 41.256 85.503 C 41.108 85.503 40.956 85.467 40.817 85.389 C 40.379 85.147 40.219 84.594 40.463 84.154 L 46.72 72.846 C 46.963 72.407 47.519 72.248 47.956 72.491 C 48.393 72.733 48.552 73.286 48.309 73.726 Z" opacity="0.8" stroke-opacity="0" stroke-miterlimit="10"/></g></g></g></g></g><g transform="translate(0.5,0.5) matrix(1,0,0,1,39.99999999999999,72)"><g><g transform="translate(0,0) scale(0.5333333333333333,0.5356903709655819)"><g><path fill="#3966A0" stroke="rgb(0,0,0)" d="M 123 62.3 L 112.006 62.3 L 112.006 5 C 112.006 2.243 109.764 0 107.006 0 L 18.993 0 C 16.236 0 13.993 2.243 13.993 5 L 13.993 62.3 L 3 62.3 L 0 62.3 L 0 65.3 L 0 68.485 C 0 71.953 2.328 74.67 5.3 74.67 L 120.699 74.67 C 123.671 74.67 126 71.953 126 68.485 L 126 65.3 L 126 62.3 L 123 62.3 Z" stroke-opacity="0" stroke-miterlimit="10"/></g><g><g><path fill="#FFFFFF" stroke="rgb(0,0,0)" d="M 107.027 2.999 L 19.014 2.999 C 17.914 2.999 17.014 3.899 17.014 4.999 L 17.014 62.3 L 109.027 62.3 L 109.027 4.999 C 109.027 3.899 108.127 2.999 107.027 2.999 Z M 103.275 60.507 L 33.613 60.507 L 22.765 60.507 L 22.765 8.75 L 63.495 8.75 L 103.275 8.75 L 103.275 60.507 Z" opacity="0.93" stroke-opacity="0" stroke-miterlimit="10"/></g></g><g><g><path fill="#FFFFFF" stroke="rgb(0,0,0)" d="M 112.607 65.3 L 112.607 65.3 L 71.455 65.301 L 71.455 65.893 C 71.455 66.768 70.937 67.485 70.305 67.485 L 56.12 67.485 C 55.487 67.485 54.97 66.768 54.97 65.893 L 54.97 65.301 L 14.521 65.301 L 14.521 65.3 L 3.021 65.3 L 3.021 68.485 C 3.021 70.235 4.056 71.669 5.321 71.669 L 120.721 71.669 C 121.985 71.669 123.022 70.235 123.022 68.485 L 123.022 65.3 L 112.607 65.3 Z" opacity="0.85" stroke-opacity="0" stroke-miterlimit="10"/></g></g><g><path fill="#FFFFFF" stroke="rgb(0,0,0)" d="M 63.495 8.75 L 22.765 8.75 L 22.765 60.507 L 33.613 60.507 L 63.495 8.75 Z" opacity="0.1" stroke-opacity="0" stroke-miterlimit="10"/></g></g></g></g><g transform="translate(0.5,0.5) matrix(1,0,0,1,16.951219512195124,59.5)"><g><g transform="translate(0,0) scale(0.741094037681236,0.7378258730939499) translate(-0.0001780171,0)"><g><g><path fill="#3966A0" stroke="rgb(0,0,0)" d="M 62.176 71.979 C 62.134 58.362 55.184 48.994 43.067 45.44 C 50.425 41.258 55.403 33.353 55.403 24.302 C 55.402 10.901 44.501 0 31.101 0 C 17.702 0 6.8 10.901 6.8 24.302 C 6.8 33.385 11.812 41.314 19.212 45.484 C 7.176 49.108 0.07 58.58 0.026 71.98 C -0.045 72.514 -0.04 73.694 1 75.043 C 4.212 79.208 14.339 81.32 31.101 81.32 C 47.863 81.32 57.992 79.208 61.203 75.043 C 62.242 73.693 62.248 72.514 62.176 71.979 Z" stroke-opacity="0" stroke-miterlimit="10"/></g><g><path fill="#FFFFFF" stroke="rgb(0,0,0)" d="M 31.101 3 C 19.356 3 9.8 12.556 9.8 24.302 C 9.8 33.578 15.771 41.467 24.063 44.383 C 26.27 45.159 28.632 45.604 31.101 45.604 C 33.587 45.604 35.966 45.153 38.187 44.366 C 46.455 41.436 52.402 33.561 52.402 24.303 C 52.402 12.556 42.847 3 31.101 3 Z" opacity="0.93" stroke-opacity="0" stroke-miterlimit="10"/></g><g><path fill="#FFFFFF" stroke="rgb(0,0,0)" d="M 3.026 72.104 L 3.005 72.453 C 3.026 72.606 3.126 72.966 3.583 73.455 C 4.948 74.918 10.362 78.321 31.101 78.321 C 52.57 78.321 57.642 74.748 58.828 73.212 C 59.102 72.855 59.226 72.487 59.226 72.487 L 59.176 72.104 C 59.176 58.426 51.738 49.723 38.495 47.45 C 36.161 48.197 33.678 48.604 31.099 48.604 C 28.541 48.604 26.076 48.204 23.759 47.467 C 10.643 49.795 3.026 58.637 3.026 72.104 Z" opacity="0.93" stroke-opacity="0" stroke-miterlimit="10"/></g></g></g></g></g><g transform="translate(0,0) matrix(1,0,0,1,126,68)"><g><g transform="translate(0,0) scale(2.22,0.15)"><g><g transform="scale(0.4504504504504504,6.666666666666667)"><path fill="#FFFFFF" stroke="none" d="M 0 4.5 L 214.50000000000003 4.5 L 214.50000000000003 0 L 222.00000000000003 7.5 L 214.50000000000003 15 L 214.50000000000003 10.5 L 0 10.5 L 0 4.5 Z"/><path fill="none" stroke="#0B599F" d="M 0 4.5 M 0 4.5 L 214.50000000000003 4.5 L 214.50000000000003 0 L 222.00000000000003 7.5 L 214.50000000000003 15 L 214.50000000000003 10.5 L 0 10.5 L 0 4.5 Z" stroke-miterlimit="10" stroke-width="2"/></g></g></g></g></g><g transform="translate(0,0) matrix(1,0,0,1,126,112)"><g><g transform="translate(0,0) scale(2.22,0.15)"><g><g transform="scale(0.4504504504504504,6.666666666666667)"><path fill="#FFFFFF" stroke="none" d="M 0 7.5 L 7.5 0 L 7.5 4.5 L 222.00000000000003 4.5 L 222.00000000000003 10.5 L 7.5 10.5 L 7.5 15 L 0 7.5 Z"/><path fill="none" stroke="#0B599F" d="M 0 7.5 M 0 7.5 L 7.5 0 L 7.5 4.5 L 222.00000000000003 4.5 L 222.00000000000003 10.5 L 7.5 10.5 L 7.5 15 L 0 7.5 Z" stroke-miterlimit="10" stroke-width="2"/></g></g></g></g></g><g transform="matrix(1,0,0,1,164,21)"><g transform="translate(78,54) matrix(1,0,0,1,0,0) translate(-78,-54)"><g><rect fill="rgb(0,0,0)" stroke="none" x="0" y="0" width="147" height="36" fill-opacity="0"/></g></g><g transform="translate(78,54) matrix(1,0,0,1,0,0) translate(-78,-54)"><g><rect fill="rgb(0,0,0)" stroke="none" x="0" y="0" width="147" height="18" fill-opacity="0"/></g></g><g transform="translate(78,54) matrix(1,0,0,1,0,0) translate(-78,-54)"><g><rect fill="rgb(0,0,0)" stroke="none" x="20" y="0" width="107" height="17" fill-opacity="0"/></g></g><g transform="translate(78,54) matrix(1,0,0,1,0,0) translate(-78,-54)"><g><rect fill="rgb(0,0,0)" stroke="none" x="20" y="0" width="107" height="17" fill-opacity="0"/></g><text fill="rgb(7, 55, 99)" stroke="none" font-family="Arial" font-size="16px" font-style="normal" font-weight="bold" text-decoration="" line-height="18.5px" x="20" y="15">Web</text><text fill="rgb(7, 55, 99)" stroke="none" font-family="Arial" font-size="16px" font-style="normal" font-weight="bold" text-decoration="" line-height="18.5px" x="58" y="15">Request</text><text fill="rgb(7, 55, 99)" stroke="none" font-family="Arial" font-size="16px" font-style="normal" font-weight="bold" text-decoration="" line-height="18.5px" x="121" y="15">:</text></g><g transform="translate(78,54) matrix(1,0,0,1,0,0) translate(-78,-54)"><g><rect fill="rgb(0,0,0)" stroke="none" x="0" y="18" width="147" height="18" fill-opacity="0"/></g></g><g transform="translate(78,54) matrix(1,0,0,1,0,0) translate(-78,-54)"><g><rect fill="rgb(0,0,0)" stroke="none" x="19" y="18" width="109" height="17" fill-opacity="0"/></g></g><g transform="translate(78,54) matrix(1,0,0,1,0,0) translate(-78,-54)"><g><rect fill="rgb(0,0,0)" stroke="none" x="19" y="18" width="109" height="17" fill-opacity="0"/></g><text fill="rgb(7, 55, 99)" stroke="none" font-family="Arial" font-size="16px" font-style="normal" font-weight="bold" text-decoration="" line-height="18.5px" x="19" y="33">Get</text><text fill="rgb(7, 55, 99)" stroke="none" font-family="Arial" font-size="16px" font-style="normal" font-weight="bold" text-decoration="" line-height="18.5px" x="50" y="33">my</text><text fill="rgb(7, 55, 99)" stroke="none" font-family="Arial" font-size="16px" font-style="normal" font-weight="bold" text-decoration="" line-height="18.5px" x="77" y="33">details</text></g></g><g transform="matrix(1,0,0,1,169,132)"><g transform="translate(102,54) matrix(1,0,0,1,0,0) translate(-102,-54)"><g><rect fill="rgb(0,0,0)" stroke="none" x="0" y="0" width="137" height="36" fill-opacity="0"/></g></g><g transform="translate(102,54) matrix(1,0,0,1,0,0) translate(-102,-54)"><g><rect fill="rgb(0,0,0)" stroke="none" x="0" y="0" width="137" height="18" fill-opacity="0"/></g></g><g transform="translate(102,54) matrix(1,0,0,1,0,0) translate(-102,-54)"><g><rect fill="rgb(0,0,0)" stroke="none" x="28" y="0" width="81" height="17" fill-opacity="0"/></g></g><g transform="translate(102,54) matrix(1,0,0,1,0,0) translate(-102,-54)"><g><rect fill="rgb(0,0,0)" stroke="none" x="28" y="0" width="81" height="17" fill-opacity="0"/></g><text fill="rgb(7, 55, 99)" stroke="none" font-family="Arial" font-size="16px" font-style="normal" font-weight="bold" text-decoration="" line-height="18.5px" x="28" y="15">Response</text><text fill="rgb(7, 55, 99)" stroke="none" font-family="Arial" font-size="16px" font-style="normal" font-weight="bold" text-decoration="" line-height="18.5px" x="104" y="15">:</text></g><g transform="translate(102,54) matrix(1,0,0,1,0,0) translate(-102,-54)"><g><rect fill="rgb(0,0,0)" stroke="none" x="0" y="18" width="137" height="18" fill-opacity="0"/></g></g><g transform="translate(102,54) matrix(1,0,0,1,0,0) translate(-102,-54)"><g><rect fill="rgb(0,0,0)" stroke="none" x="23" y="18" width="91" height="17" fill-opacity="0"/></g></g><g transform="translate(102,54) matrix(1,0,0,1,0,0) translate(-102,-54)"><g><rect fill="rgb(0,0,0)" stroke="none" x="23" y="18" width="91" height="17" fill-opacity="0"/></g><text fill="rgb(7, 55, 99)" stroke="none" font-family="Arial" font-size="16px" font-style="normal" font-weight="bold" text-decoration="" line-height="18.5px" x="23" y="33">Your</text><text fill="rgb(7, 55, 99)" stroke="none" font-family="Arial" font-size="16px" font-style="normal" font-weight="bold" text-decoration="" line-height="18.5px" x="63" y="33">details</text></g></g><g transform="matrix(1,0,0,1,210,1)"><g transform="translate(148,-14) matrix(1,0,0,1,0,0) translate(-148,14)"><g><rect fill="rgb(0,0,0)" stroke="none" x="0" y="0" width="147" height="14" fill-opacity="0"/></g></g><g transform="translate(148,-14) matrix(1,0,0,1,0,0) translate(-148,14)"><g/></g><g transform="translate(148,-14) matrix(1,0,0,1,0,0) translate(-148,14)"><g/></g><g transform="translate(148,-14) matrix(1,0,0,1,0,0) translate(-148,14)"><g/></g><g transform="translate(148,-14) matrix(1,0,0,1,0,0) translate(-148,14)"><g/></g></g></g></svg>